<svg xmlns="http://www.w3.org/2000/svg" viewBox="0 0 48 48" width="48" height="48">
  <defs>
    <linearGradient id="cloudGradient" x1="0%" y1="0%" x2="100%" y2="100%">
      <stop offset="0%" style="stop-color:#a855f7;stop-opacity:1" />
      <stop offset="100%" style="stop-color:#7c3aed;stop-opacity:1" />
    </linearGradient>
  </defs>
  <!-- Purple cloud shape -->
  <path fill="url(#cloudGradient)" d="M38 22c0-1.1-.9-2-2-2h-1c0-4.4-3.6-8-8-8-3.5 0-6.5 2.2-7.6 5.4C18.6 16.5 17.4 16 16 16c-2.8 0-5 2.2-5 5 0 .3 0 .6.1.9C8.6 22.8 7 25.2 7 28c0 3.9 3.1 7 7 7h24c3.3 0 6-2.7 6-6 0-3.1-2.4-5.7-5.4-6-.4-1.5-1.4-2.6-2.6-3 .3-.6.5-1.3.5-2 0-.3 0-.7-.1-1H38z"/>
  <!-- Gear icon centered in cloud -->
  <g transform="translate(17, 18)" fill="#ffffff">
    <path d="M7 0L6.2 2.1C5.7 2.2 5.3 2.4 4.9 2.7L2.8 2L1 4.1L2.4 5.9C2.3 6.3 2.2 6.6 2.2 7C2.2 7.4 2.3 7.7 2.4 8.1L1 9.9L2.8 12L4.9 11.3C5.3 11.6 5.7 11.8 6.2 11.9L7 14H10L10.8 11.9C11.3 11.8 11.7 11.6 12.1 11.3L14.2 12L16 9.9L14.6 8.1C14.7 7.7 14.8 7.4 14.8 7C14.8 6.6 14.7 6.3 14.6 5.9L16 4.1L14.2 2L12.1 2.7C11.7 2.4 11.3 2.2 10.8 2.1L10 0H7ZM8.5 4.5C10.4 4.5 12 6.1 12 8C12 9.9 10.4 11.5 8.5 11.5C6.6 11.5 5 9.9 5 8C5 6.1 6.6 4.5 8.5 4.5Z" transform="translate(-0.5, -1) scale(0.85)"/>
  </g>
</svg>
